<svg width="19" height="18" viewBox="0 0 19 18" fill="none" xmlns="http://www.w3.org/2000/svg">
<path d="M10.5212 0.604444C9.73998 -0.201481 8.42613 -0.201481 7.64648 0.604444V7.33878L9.08386 8.81736L10.5212 7.33878V0.604444V0.604444Z" fill="#272626"/>
<path d="M10.5212 10.5972L9.08386 9.1123L7.64648 10.5972V17.3315C8.42773 18.1358 9.73998 18.1358 10.5212 17.3315V10.5972V10.5972Z" fill="#272626"/>
<path d="M0.000729373 14.5212C-0.0297506 15.6313 0.899083 16.5392 2.03326 16.5078L6.90524 11.746L6.95818 9.70605L4.87271 9.7578L0.000729373 14.5212Z" fill="#272626"/>
<path d="M2.03334 1.42161C0.897557 1.39182 -0.0312772 2.29966 0.000806988 3.4082L4.87279 8.17006L6.95986 8.2218L6.90692 6.18347L2.03334 1.42161Z" fill="#9FFFFF" fill-opacity="0.96"/>
<path d="M11.2667 6.17852L11.209 8.22155L13.2993 8.16511L18.1712 3.40325C18.2001 2.29471 17.2729 1.38843 16.1387 1.41666L11.2667 6.17852Z" fill="#272626"/>
<path d="M13.3012 9.76445L11.2109 9.70801L11.2687 11.751L16.1407 16.5129C17.2748 16.5411 18.2021 15.6349 18.1732 14.5263L13.3012 9.76445Z" fill="#272626"/>
</svg>
